<?xml version="1.0" encoding="UTF-8"?>
<svg width="51px" height="47px" viewBox="0 0 51 47" version="1.1" xmlns="http://www.w3.org/2000/svg" xmlns:xlink="http://www.w3.org/1999/xlink">
    <!-- Generator: Sketch 50.2 (55047) - http://www.bohemiancoding.com/sketch -->
    <title>Group</title>
    <desc>Created with Sketch.</desc>
    <defs></defs>
    <g id="Page-1" stroke="none" stroke-width="1" fill="none" fill-rule="evenodd">
        <g id="Desktop-HD-Copy" transform="translate(-56.000000, -15.000000)" fill="#043552">
            <g id="Group" transform="translate(56.206750, 14.863636)">
                <path d="M10.548954,32.9695368 L11.0838806,32.9695368 L12.8287604,34.7016801 L12.2938337,34.7016801 L10.548954,32.9695368 Z M10.0267637,32.9695368 L11.7716434,34.7016801 L11.2367168,34.7016801 L9.50457344,32.9695368 L10.0267637,32.9695368 Z M13.2490598,33.5554088 L11.5169165,31.8105291 L11.5169165,31.2756024 L13.2490598,33.0204822 L13.2490598,33.5554088 Z M13.2490598,34.0775991 L13.2490598,34.6125257 L11.5169165,32.867646 L11.5169165,32.3327194 L13.2490598,34.0775991 Z M15.4651845,34.7016801 L13.7203047,32.9695368 L14.2552314,32.9695368 L16.0001111,34.7016801 L15.4651845,34.7016801 Z M11.5169165,30.7534122 L11.5169165,30.2184855 L12.7268696,31.441175 C12.7523424,31.7043942 12.7990419,31.9294007 12.8669694,32.1162014 L11.5169165,30.7534122 Z M14.7774216,32.9695368 L15.3123483,32.9695368 L17.0444916,34.7016801 L16.5223014,34.7016801 L14.7774216,32.9695368 Z M12.7141332,30.9062483 L11.5169165,29.6962953 L11.5169165,29.174105 L12.7141332,30.3713217 L12.7141332,30.9062483 Z M17.5666819,34.7016801 L15.8345386,32.9695368 L16.1402109,32.9695368 C15.6562273,32.4006437 15.3887666,32.0525203 15.337821,31.9251562 L17.0699643,33.6700359 C17.12091,33.7804182 17.2100635,33.9120258 17.3374277,34.0648627 L17.8850906,34.7016801 L17.5666819,34.7016801 Z M11.5169165,28.6519147 L11.5169165,28.1169881 L12.7141332,29.3142048 L12.7141332,29.8491314 L11.5169165,28.6519147 Z M16.9298645,32.4728192 C16.9298645,32.642638 16.9383553,32.8251905 16.9553372,33.0204822 L15.2104575,31.2883388 C15.2019665,31.0930471 15.1977211,30.9104946 15.1977211,30.7406758 L16.9298645,32.4728192 Z M16.9298645,31.9506289 L15.1977211,30.2184855 L15.1977211,29.6835589 L16.9298645,31.4157023 L16.9298645,31.9506289 Z M11.5169165,27.0598712 L12.7141332,28.2570879 L12.7141332,28.7920145 L11.5169165,27.5947978 L11.5169165,27.0598712 Z M11.5169165,26.5376809 L11.5169165,26.0027542 L12.7141332,27.199971 L12.7141332,27.7348976 L11.5169165,26.5376809 Z M16.9298645,30.893512 L15.1977211,29.1613686 L15.1977211,28.626442 L16.9298645,30.3585854 L16.9298645,30.893512 Z M11.5169165,25.480564 L11.5169165,24.9456373 L12.7141332,26.1428541 L12.7141332,26.6777807 L11.5169165,25.480564 Z M15.1977211,28.0915154 L15.1977211,27.5693251 L16.9298645,29.3014685 L16.9298645,29.8363951 L15.1977211,28.0915154 Z M12.7141332,25.6206638 L11.5169165,24.423447 L11.5169165,24.2069291 C11.6612625,24.2154201 11.7758885,24.2239109 11.8607979,24.2324018 L12.7013969,25.0730008 C12.7098878,25.2003649 12.7141332,25.3192363 12.7141332,25.4296186 L12.7141332,25.6206638 Z M16.9298645,28.7792782 L15.1977211,27.0471348 L15.1977211,26.5122082 L16.9298645,28.2443515 L16.9298645,28.7792782 Z M15.1977211,25.9900179 L15.1977211,25.4550913 L16.9298645,27.1872346 L16.9298645,27.7221613 L15.1977211,25.9900179 Z M16.9298645,26.6650444 L15.1849848,24.9201646 C15.1764939,24.6994002 15.1552668,24.499866 15.1213031,24.3215563 L16.8661828,26.066436 C16.8916556,26.2447458 16.9128826,26.4442799 16.9298645,26.6650444 Z M11.937216,21.6723958 L11.5169165,21.2520963 L11.5169165,20.7171697 L12.3065701,21.5068233 C12.1961878,21.5832418 12.073071,21.638432 11.937216,21.6723958 Z M14.8411034,23.5319027 C14.6882664,23.2686835 14.4887323,23.0436769 14.242495,22.8568762 C14.3443863,22.7804577 14.4335399,22.7125312 14.5099583,22.6530946 L16.2421017,24.385238 C16.1741742,24.4531655 16.0935114,24.5168466 16.0001111,24.5762832 L16.2548381,24.8310102 C16.3737112,24.9498834 16.4840918,25.0942272 16.5859831,25.264046 L14.8411034,23.5319027 Z M11.5169165,20.1949794 L11.5169165,19.6600528 L12.6759242,20.8190605 C12.6419604,20.9973702 12.5995063,21.1374687 12.5485607,21.23936 L11.5169165,20.1949794 Z M16.4968287,24.1177747 L14.7519489,22.3856313 C14.8283674,22.28374 14.8962939,22.1733594 14.9557305,22.0544863 L16.7006102,23.7866296 C16.6411737,23.9055028 16.5732471,24.0158834 16.4968287,24.1177747 Z M12.7141332,20.3350792 L11.5169165,19.1378625 L11.5169165,18.6029359 L12.7141332,19.8001526 L12.7141332,20.3350792 Z M15.0958304,21.6723958 C15.1213032,21.5450317 15.1467756,21.3879516 15.1722484,21.2011509 L16.9043918,22.9332943 C16.8874099,23.120095 16.8661829,23.2771751 16.8407101,23.4045392 L15.0958304,21.6723958 Z M11.5169165,18.0807456 L11.5169165,17.545819 L12.7141332,18.7430357 L12.7141332,19.2779623 L11.5169165,18.0807456 Z M16.9298645,22.4365767 L15.1849848,20.7044333 L15.1977211,20.5515972 L15.1977211,20.1695067 L16.9298645,21.9143864 L16.9298645,22.4365767 Z M12.7141332,18.2208454 L11.5169165,17.0236287 L11.5169165,16.488702 L12.7141332,17.6859188 L12.7141332,18.2208454 Z M15.1977211,19.6473164 L15.1977211,19.1123898 L16.9298645,20.8572695 L16.9298645,21.3921961 L15.1977211,19.6473164 Z M11.5169165,15.9665118 L11.5169165,15.4952669 L11.5678619,15.4952669 L12.7141332,16.6415382 L12.7141332,17.1637285 L11.5169165,15.9665118 Z M16.9298645,20.3350792 L15.1977211,18.5901995 L15.1977211,18.0552729 L16.9298645,19.7874163 L16.9298645,20.3350792 Z M12.6886605,16.0811389 L12.1409975,15.5334759 C12.4551624,15.6014035 12.6377149,15.783956 12.6886605,16.0811389 Z M15.1977211,17.5330826 L15.1977211,16.998156 L16.9298645,18.7430357 L16.9298645,19.2779623 L15.1977211,17.5330826 Z M16.9298645,18.2208454 L15.1977211,16.4759657 L15.1977211,16.0684026 L15.1849848,15.9410391 L16.9298645,17.6859188 L16.9298645,18.2208454 Z M15.1467757,15.3679034 C15.0958301,15.0792114 15.0363944,14.8414686 14.9684669,14.6546679 L16.7006102,16.3995476 C16.7855197,16.6118211 16.8449554,16.8495639 16.8789191,17.1127831 L15.1467757,15.3679034 Z M9.42815535,13.4065058 L12.3575155,13.4065058 C13.9877762,13.4065058 14.8028943,14.2937958 14.8028943,16.0684026 L14.8028943,20.5515972 C14.7944034,21.3497456 14.6500596,21.9143848 14.3698585,22.2455315 C14.1236212,22.5002597 13.7372892,22.691303 13.2108508,22.8186672 C13.8221986,23.0054679 14.2552301,23.3068918 14.5099583,23.7229479 C14.70525,24.0710765 14.8028943,24.5805253 14.8028943,25.2513097 L14.8028943,30.7024668 C14.8113853,31.5770337 14.9769562,32.2011086 15.2996119,32.57471 L13.6056776,32.57471 C13.2660399,32.2011086 13.1004691,31.5940154 13.10896,30.7534122 L13.10896,25.4296186 C13.1004691,24.7248704 12.922162,24.2663665 12.5740334,24.0540929 C12.2938323,23.8927651 11.8098559,23.8121023 11.1220897,23.8121023 L11.1220897,32.57471 L9.42815535,32.57471 L9.42815535,13.4065058 Z M11.1220897,15.1004401 L11.1220897,22.1436407 C11.9032563,22.1351498 12.442423,21.9738243 12.7396059,21.6596595 C12.9773523,21.3879493 13.1004691,20.9421816 13.10896,20.3223429 L13.10896,16.4632294 C13.1004691,15.8773544 12.9391436,15.4910224 12.6249788,15.3042217 C12.3872324,15.1683666 12.0009004,15.1004401 11.4659711,15.1004401 L11.1220897,15.1004401 Z M36.2178923,33.0841639 C36.3622383,33.0586911 36.5023367,33.0247278 36.6381918,32.9822731 L38.3830715,34.7144165 C38.2387255,34.7568712 38.0943817,34.7908345 37.9500357,34.8163073 L36.2178923,33.0841639 Z M35.7339111,33.122373 L37.4660544,34.8672527 C37.2962356,34.8672527 37.1051923,34.850271 36.8929188,34.8163073 L35.1607754,33.0841639 C35.364558,33.1096367 35.5556013,33.122373 35.7339111,33.122373 Z M34.4602762,32.905855 L36.1924196,34.6379984 C35.7339088,34.4766705 35.3560675,34.2431731 35.0588846,33.9374992 L33.3267412,32.2053559 C33.6324151,32.5110298 34.0102563,32.7445271 34.4602762,32.905855 Z M38.7524256,34.5743167 L37.0202822,32.8294369 C37.1221735,32.7784913 37.2367995,32.7148102 37.3641636,32.6383917 L39.096307,34.3832714 C38.9774338,34.451199 38.8628078,34.5148801 38.7524256,34.5743167 Z M37.6570997,32.4218738 C37.7420091,32.3454553 37.8311626,32.2563018 37.924563,32.1544105 L39.6694427,33.8865539 C39.5675514,33.9969361 39.4783978,34.0860896 39.4019794,34.1540172 L37.6570997,32.4218738 Z M35.0079392,29.759977 L35.0079392,29.2377867 L36.1160015,30.345849 C36.048074,30.4647222 35.9589204,30.5496303 35.8485382,30.600576 L35.0079392,29.759977 Z M39.898697,33.6063542 L38.1538172,31.8614745 C38.2302357,31.7510922 38.2981622,31.6407116 38.3575988,31.5303294 L40.0897422,33.2624728 C40.0387965,33.372855 39.9751154,33.487481 39.898697,33.6063542 Z M36.2306286,29.9255495 L35.0079392,28.7155964 L35.0079392,28.1679335 L36.2306286,29.4033592 L36.2306286,29.9255495 Z M40.3699418,32.4855555 C40.3359781,32.6299015 40.2977694,32.7657546 40.2553147,32.8931187 L38.510435,31.1609753 C38.5613806,31.0251202 38.5995893,30.8850218 38.6250621,30.7406758 L40.3699418,32.4855555 Z M40.4336236,32.027047 L38.7014802,30.2821673 C38.7099712,30.1887669 38.7142166,30.0826317 38.7142166,29.9637586 L38.7142166,29.759977 L40.4463599,31.5048567 L40.4463599,31.7086383 C40.4463599,31.8190205 40.4421145,31.9251557 40.4336236,32.027047 Z M36.2306286,28.3462423 L36.2306286,28.881169 L35.0079392,27.6457432 L35.0079392,27.1235529 L36.2306286,28.3462423 Z M36.2306286,27.8240521 L35.0079392,26.6013626 L35.0079392,26.066436 L36.2306286,27.2891254 L36.2306286,27.8240521 Z M40.4463599,30.9826664 L38.7142166,29.2505231 L38.7142166,28.7155964 L40.4463599,30.4477398 L40.4463599,30.9826664 Z M36.2306286,26.7669351 L35.0079392,25.5442457 L35.0079392,25.1112099 L36.2178923,26.3338993 C36.2263832,26.4357906 36.2306286,26.533435 36.2306286,26.6268353 L36.2306286,26.7669351 Z M38.7142166,28.1806698 L38.7142166,27.6584795 L40.4463599,29.3906229 L40.4463599,29.9255495 L38.7142166,28.1806698 Z M40.4463599,28.8684326 L38.7142166,27.1362892 L38.7142166,26.6013626 L40.4463599,28.333506 L40.4463599,28.8684326 Z M38.6760075,26.0409633 C38.6590256,25.8456716 38.6293078,25.6376467 38.5868531,25.4168822 L40.3317328,27.1617619 C40.3741875,27.3825264 40.4039054,27.5905514 40.4208872,27.785843 L38.6760075,26.0409633 Z M40.1534239,26.4612628 L38.4212806,24.7291194 C38.3278802,24.4404274 38.2132542,24.1474943 38.0773991,23.8503114 L39.8222789,25.5951911 C39.9751158,25.9093559 40.0854964,26.1980436 40.1534239,26.4612628 Z M37.0075459,22.2582678 C36.9311274,22.1563765 36.7995198,21.9908057 36.6127191,21.7615503 C36.0947717,21.1162387 35.712685,20.5898082 35.4664477,20.1822431 L37.2113275,21.9271228 C37.4320919,22.2922333 37.8141786,22.8144183 38.3575988,23.4936936 C38.5359086,23.722949 38.6632708,23.8885199 38.7396893,23.9904112 L37.0075459,22.2582678 Z M36.8674461,21.0610511 L35.1225663,19.3161714 C35.0801116,19.1293707 35.0461484,18.9171003 35.0206756,18.679354 L36.7528189,20.4242337 C36.7698008,20.6365072 36.8080095,20.8487776 36.8674461,21.0610511 Z M36.4726193,19.6091074 L37.0075459,19.6091074 L38.7524256,21.3539871 L38.2047626,21.3539871 L36.4726193,19.6091074 Z M36.2306286,19.3671168 L35.0079392,18.1444273 L35.0079392,17.6095007 L36.2306286,18.8321901 L36.2306286,19.3671168 Z M39.2618795,21.3539871 L37.5297362,19.6091074 L38.0646628,19.6091074 L39.7968062,21.3539871 L39.2618795,21.3539871 Z M35.0079392,17.0873104 L35.0079392,16.5523838 L36.2306286,17.7750732 L36.2306286,18.3099999 L35.0079392,17.0873104 Z M38.5868531,19.6091074 L38.7142166,19.6091074 L38.7142166,19.2015442 L40.4463599,20.946424 L40.4463599,21.3539871 L40.3189965,21.3539871 L38.5868531,19.6091074 Z M36.2306286,17.2528829 L35.0079392,16.0429299 C35.0249211,15.873111 35.0673752,15.7330126 35.1353027,15.6226304 L36.2306286,16.7179563 L36.2306286,17.2528829 Z M40.4463599,20.4242337 L38.7142166,18.679354 L38.7142166,18.1444273 L40.4463599,19.8765707 L40.4463599,20.4242337 Z M35.4155023,15.3806397 C35.4919208,15.346676 35.5683381,15.3296943 35.6447566,15.3296943 C36.0353399,15.3296943 36.2306286,15.6226274 36.2306286,16.2085024 L35.4155023,15.3806397 Z M38.7142166,17.622237 L38.7142166,17.0873104 L40.4463599,18.8321901 L40.4463599,19.3543804 L38.7142166,17.622237 Z M40.4463599,18.3099999 L38.7142166,16.5651201 L38.7142166,16.0301935 L40.4463599,17.7750732 L40.4463599,18.3099999 Z M38.6505348,15.4570578 C38.6080801,15.1853477 38.5359082,14.9306233 38.4340169,14.6928769 L40.1788966,16.4377567 C40.2807879,16.683994 40.3529598,16.934473 40.3954145,17.1892012 L38.6505348,15.4570578 Z M38.3193898,19.2142806 L36.6254554,19.2142806 L36.6254554,16.195766 C36.6254554,15.3551628 36.2985591,14.9348676 35.6447566,14.9348676 C34.9569904,14.9348676 34.6131124,15.346672 34.6131124,16.1702933 L34.6131124,18.3227362 C34.6131124,19.1123937 34.7871741,19.8001497 35.1353027,20.3860246 C35.38154,20.8105717 35.7763628,21.3497384 36.3197831,22.0035409 C37.1094406,22.9630172 37.6103986,23.7059635 37.8226722,24.2324018 C38.1538189,24.9880956 38.3193898,25.8117046 38.3193898,26.7032534 L38.3193898,29.9637586 C38.3193898,30.7958708 38.0604199,31.4708905 37.5424725,31.988838 C37.0499979,32.4813125 36.4301685,32.7275462 35.6829657,32.7275462 C34.9527447,32.7275462 34.3201791,32.5152758 33.7852498,32.0907287 C33.2078658,31.6407088 32.9191781,31.0378611 32.9191781,30.2821673 L32.9191781,25.5060367 L34.6131124,25.5060367 L34.6131124,29.759977 C34.6131124,30.1760331 34.7319838,30.5029295 34.9697302,30.7406758 C35.1650218,30.9359675 35.3942738,31.0336118 35.657493,31.0336118 C35.8952393,31.0336118 36.1032643,30.9487037 36.281574,30.7788849 C36.5108294,30.5496294 36.6254554,30.2269785 36.6254554,29.8109224 L36.6254554,26.6268353 C36.6169645,25.7947231 36.4301666,25.0814947 36.0650561,24.4871288 C35.8273098,24.0795636 35.4155053,23.5446423 34.8296303,22.8823489 C34.0484637,22.0077819 33.5602419,21.3327622 33.3649503,20.8572695 C33.0677673,20.211958 32.9191781,19.5157112 32.9191781,18.7685084 L32.9191781,16.195766 C32.9191781,15.32969 33.2036203,14.6122162 33.7725134,14.0433232 C34.3074427,13.5083939 34.9442538,13.2409332 35.6829657,13.2409332 C36.3962047,13.2409332 37.0032979,13.4914122 37.5042635,13.9923778 C38.0476837,14.535798 38.3193898,15.2405356 38.3193898,16.1066116 L38.3193898,19.2142806 Z" id="R-s"></path>
                <path d="M24.1262045,23.1619372 L24.6611312,23.1619372 L26.3932745,24.8940806 L25.8710842,24.8940806 L24.1262045,23.1619372 Z M23.6040142,23.1619372 L25.348894,24.8940806 L24.8139673,24.8940806 L23.0690876,23.1619372 L23.6040142,23.1619372 Z M26.9154648,24.8940806 L25.1833214,23.1619372 L25.2215305,23.1619372 L25.2215305,22.6652196 L26.9664102,24.397363 L26.9664102,24.8940806 L26.9154648,24.8940806 Z M25.2215305,22.1430294 L25.2215305,21.6081027 L26.9664102,23.3529824 L26.9664102,23.8751727 L25.2215305,22.1430294 Z M26.9664102,22.8307922 L25.2215305,21.0859124 L25.2215305,20.8057128 L26.9664102,22.5505925 L26.9664102,22.8307922 Z M23.2601328,21.2005396 L24.8267037,21.2005396 L24.8267037,22.7671104 L23.2601328,22.7671104 L23.2601328,21.2005396 Z" id="."></path>
                <path d="M1.89069648,2.10522896 L1.89069648,44.8352926 L47.9838188,44.8352926 L47.9838188,2.10522896 L1.89069648,2.10522896 Z M0.0296042019,0.244136684 L49.8449111,0.244136684 L49.8449111,46.6963849 L0.0296042019,46.6963849 L0.0296042019,0.244136684 Z" id="Rectangle-3" fill-rule="nonzero"></path>
            </g>
        </g>
    </g>
</svg>